<?xml version="1.0" encoding="utf-8"?>
<!-- Generator: Adobe Illustrator 25.0.1, SVG Export Plug-In . SVG Version: 6.00 Build 0)  -->
<svg version="1.1" id="Layer_1" xmlns="http://www.w3.org/2000/svg" xmlns:xlink="http://www.w3.org/1999/xlink" x="0px" y="0px"
	 viewBox="0 0 742.9 172.7" style="enable-background:new 0 0 742.9 172.7;" xml:space="preserve">
<path class="st0" d="M116.3,45.6c2.1-0.4,4.3-0.9,6.4-1.4c35-8.8,46.2-17.5,48.8-19.3c2.5-2,1.7-3.1,0.8-3.9c-1.4-0.9-7.2-7.3-8.9-9.2
	c-2.7-3.3-4.4-2.2-5.5-1.5c-10.2,6.8-28.3,13.1-53.5,17.8C67.3,33.3,48.1,43.7,34,53C10.6,69.6,13,80.4,13,83.6
	c0.8,3.7,4.3,3.7,4.3,3.7c2.2,0,7.2,0.3,11.5,0.7c3.8,0.3,4.6-4.4,4.6-5.5c1.4-6.2,9.9-11.5,14.9-14.8C63.2,58.2,77.4,53,90.6,50
	l-59,102.2c0,0-1.7,3.3-3.6,3.4c-1.1-0.1-5,1.9,3.1,7.2c4.9,3.3,9.7,6,9.7,6s3.6,0.4,6.7-4.3c6.2-9.5,7.7-12.3,7.7-12.3l61.6-106.6
	H116.3z"/>
<path class="st0" d="M188.8,60.3c-0.4-0.4-1-0.6-1.6-0.6l-14.4,0.1c-2.8-0.1-5.1,1.7-6.1,3.5L151.3,90l-20.2,1.9c9.1-15.6,18.6-32.1,22.3-38.4
	c0.8-1.4,0-3.2-1.6-3.5L137,50c-2.8-0.1-5.1,1.7-6.1,3.5l-40.5,70.6c0,0-4.8,9.1,3.7,18.1c0.4,0.4,0.9,0.5,1.4,0.2
	c5.2-3,10.8-6,13.5-7.5c0.9-0.5,1.4-1.5,1.2-2.6c-0.3-1.6-0.3-4.2,1.7-7.5c0.7-1.2,3-5.2,6.3-10.7c1.9-0.2,8.3-1,13.2-2.6
	c3.8-0.8,6.5-1.3,8.3-1.4l-15.9,27.7c-1.1,1.9-0.1,4.2,2,4.7c4.8,1.3,10.4,2.8,14.9,3.7c1.9,0.4,3.9-0.6,4.6-2.4
	c0.4-1,0.6-2.1,0.6-3c-0.1-1.6,0.3-3.7,1.9-6.3c2.9-4.9,34.1-58.6,41.5-71.4C189.8,62.2,189.5,61,188.8,60.3z"/>
<path class="st0" d="M270.2,107.2l-2.8-0.2c-1.7-0.1-3.4-0.7-4.8-1.6L229.7,83c-0.7-0.5-0.6-1.5,0.1-1.9c1.5-0.8,4.5-2.5,10.2-5.8
	c28.5-14.8,29.2-29.9,29.5-34.4c-1.3-15.9-17.8-18.2-20.8-18.5l0,0c0,0-18.2-1.6-52.6,12.9c-1.8,0.8-2.3,3.1-0.9,4.5l0.9,0.6
	c3.1,2.1,5.3,5.3,6.2,9l0.5,2.3c0.4,1.3,1.8,2.1,3.1,1.8l3.3-0.7l-33,56.1c-1.3,2.2-0.6,5,1.5,6.4l1.2,0.8c3.2,1.7,6.3,3.7,9,6.1
	l1.1,1c0.7,0.6,1.7,0.9,2.6,0.8c1.1-0.1,1.9-1.1,1.9-2.2v-3.3l15.2-26.4l42.1,29.2c0.2,0.2,0.5,0.3,0.7,0.5l4.9,3.9
	c0.6,0.5,1.5,0.3,1.8-0.5l0.4-1c1.3-3.2,3.3-6,5.9-8.3l6.6-5.9C272.3,109.1,271.7,107.3,270.2,107.2z M236.3,44.6
	c1.1-1.8,2.9-3.1,5-3.5c3.7-0.7,8.5-1.4,10.5-0.9c1.2,0.3,1.7,1.8,0.9,2.8c-8.8,11.6-22.8,16.6-25.6,17L236.3,44.6z"/>
<path class="st0" d="M297.2,53.5l-10.3-6.2c-0.8-0.5-1.8-0.4-2.4,0.2c-3,2.8-5.6,6-7.6,9.5l-16.9,29.1c-0.6,1-0.6,2.2-0.1,3.2
	c0.3,0.5,0.6,0.9,1.1,1.2l11.6,7.6c1.1,0.7,2.5,0.4,3.1-0.7l22.7-39.2C299.3,56.5,298.7,54.5,297.2,53.5z"/>
<path class="st0" d="M287.7,38.8c0.5,0.4,0.7,1.1,0.4,1.7l-0.2,0.4c-0.4,0.8,0.1,1.8,1,1.9l0,0c2.7,0.4,5.3,1.3,7.7,2.5l6.5,3.1
	c1.2,0.6,2.6,0,3.1-1.3l0.9-2.7c0.8-2.4,2.1-4.6,3.7-6.4l3.4-3.9c1.2-1.4,1-3.5-0.5-4.6l-1-0.7c-1.5-1.1-3-2.3-4.5-3.5l-4.3-3.7
	c-1.2-1-3-1.2-4.4-0.4l-5.3,3.1c-0.6,0.3-1.1,0.8-1.4,1.4l-6,10.9c-0.3,0.6-0.2,1.3,0.4,1.7L287.7,38.8z"/>
<path class="st0" d="M305.8,111.7l53-90.8c0.3-0.5,0.3-1,0.2-1.5l-4-14.1c-0.3-0.9-1.2-1.5-2.1-1.4l-29.7,4.2c-1.3,0.2-2,1.5-1.5,2.7l0.4,1
	c0.1,0.2,0.1,0.4,0.2,0.6l1,13.2c0.1,1.2,1.2,2,2.4,1.7l7.7-1.9l-53,91.8c-0.9,1.5-0.6,3.5,0.8,4.7l15.3,13.4c0.7,0.6,1.8,0.6,2.5,0
	l13-10.8c0.8-0.6,0.9-1.7,0.4-2.5L305.8,111.7z"/>
<path class="st0" d="M347.6,113.6l-2.7-1.4l51.8-89.8c1.1-1.9,1.4-4.1,0.8-6.1l-1.7-6.6c-0.4-1.6-1.9-2.6-3.5-2.5l-17.8,1.4
	c-0.9,0.1-1.7,0.8-1.9,1.7l-1.1,6.8c-0.2,1.2,0.6,2.3,1.8,2.4l2.3,0.2l-50.9,88.4c-0.8,1.4-0.1,3.2,1.4,3.7l5,1.7
	c2.1,0.7,4.1,1.9,5.7,3.4l1.7,1.6c0.9,0.8,2.3,0.9,3.2,0.1l5.7-2.9C348.4,115.3,348.4,114.1,347.6,113.6z"/>
<path class="st0" d="M481.6,53.3c1.1-0.1,2-0.6,2.6-1.5l3.5-5.1c0.3-0.5,0.4-1.2,0.1-1.7l-1.1-2.4c-0.3-0.6-0.9-1-1.6-1h-11.7
	c-5.9,0-11.4,3.2-14.3,8.3L432.2,97l-9,19.9l0.2-21l6.8-8.4c0.7-0.8,0.4-2.1-0.5-2.6l-13.9-7.7c-0.7-0.4-1.5-0.3-2.1,0.3l-24.5,25.7
	c2.4-12.8,14.1-30.7,14.1-30.7l7.8-9.4c0.6-0.7,0.5-1.6-0.1-2.3l-9.7-10.4c-0.4-0.5-1.1-0.7-1.7-0.5c-1.3,0.4-3.4,1-4.7,1.4
	c-0.4,0.1-0.7,0.3-0.9,0.7c-20.2,29.7-30,71.9-31.8,80.4c-0.2,0.9,0.3,1.7,1.2,2l4.7,1.4c0.7,0.2,1.2,0.9,1.2,1.7l0,1.6
	c0,0.8,0.5,1.5,1.3,1.7l15.9,4.1c0.9,0.2,1.9-0.3,2.1-1.3l1.6-6.7c0.1-0.3,0.2-0.5,0.3-0.7l13-16c0,10.6,3.7,20,3.7,20l0.1,0
	c3,7.8,6.6,11.2,7,11.3c2.4,1.4,11.1-0.7,14.7-0.9c0.7,0,1.2-0.6,1.2-1.3c0.1-4.2,1.2-8.4,3.2-12.1l44.9-81.8
	C479.1,54.1,480.3,53.4,481.6,53.3z"/>
<path class="st0" d="M523,68.4c-7.4-6.3-19.3-7.1-23.7-6.4c-14.9,2.8-27.9,27.4-27.9,27.4c-12.6,9.4-13.8,27.3-12.8,37.9
	c0.5,5.2,3.6,9.9,9.3,12.6c5.9,2.7,10.9,3.6,14.9,3.8c5.3,0.2,10.6-1.6,14.3-4.6c32-25.8,29.3-59.7,27.7-67.7
	C524.6,70.2,523.9,69.2,523,68.4z M478.9,133.7c-0.7,0.6-2,0.4-2.3-0.3c-1.9-5-2.2-13.6,1.3-22c0.3-0.7,1.3-1,2.1-0.6
	c1.5,0.8,3.5,1.5,8,1.4c0.9,0,1.5-0.6,1.4-1.3c-1.3-5-4.6-24.3,18.8-39.3c0.8-0.5,1.9-0.3,2.2,0.4C512.7,78,516.6,104.1,478.9,133.7
	z"/>
<path class="st0" d="M612.9,102l-1.3-0.5c0,0-31.9-13.9-40.8-16.8c28.6-14.2,32.2-25.6,35.8-34.2c5.2-22.7-13.4-23.4-17.1-23.4
	c-24.8,2.1-57.4,21-65.4,26.2c-1.2,0.8-1.3,2.6-0.1,3.5l10.9,7.9c0.7,0.5,1.7,0.6,2.5,0.1l19.2-10.8L543,82.2
	c-0.2,0-0.4,0.1-0.5,0.2l-1.7,0.9c-0.8,0.5-1.1,1.6-0.6,2.4l0.7,1l-14.1,29.1c0,0.1-0.1,0.1-0.1,0.2h0c-0.5,0.8-0.3,1.8,0.5,2.3
	l8.9,5.8c0.8,0.5,1.8,0.5,2.6-0.1l3.1-2.2c0.3-0.2,0.6-0.6,0.8-0.9l0.7-1.6c0,0,8.6-19.9,9.6-21.7c10.4-1.6,42.2,13.1,48.7,16.2
	c0.8,0.4,1.5,0.9,2,1.6c0.3,0.4,0.7,0.6,1.2,0.8l3.8,1.1c0.7,0.2,1.5,0.2,2.2,0c1.5-0.5,2.5-2,2.5-3.6l-0.1-3.5l1.2-5.3
	C614.6,103.6,614,102.4,612.9,102z M566.5,69.2c0.1-0.3,0.2-0.6,0.3-0.8c4.1-7.9,8.3-15.8,12.4-23.7c0.2-0.4,0.7-0.7,1.1-0.8
	c3.2-1.1,6.5-1.4,9.8-1.2c2.4,0.1,2.9,0.7,2.2,2.9c-0.6,1.8-1.4,3.7-2.4,5.3c-3.6,5.4-8.5,9.5-13.9,13c-3.1,2-6.2,3.8-9.3,5.7
	C566.7,69.4,566.6,69.3,566.5,69.2z"/>
<path class="st0" d="M656,97c2.3,2.4,8,6.8,11,5.3l8.8-4.3c1.4-0.7,1.7-2.5,0.7-3.6l-29.6-32.1c-0.6-0.6-0.4-1.7,0.4-2l28.5-13
	c2.4-1.1,4.7-2.7,6.5-4.6c1.4-1.5,1.4-3.9,0-5.3l-5.7-5.8c-1-1-2.5-1.3-3.8-0.8l-34.3,14.9c3.4-5.2,6.5-9.6,8.7-12.5
	c1.4-2,0.8-4.8-1.4-5.8l0,0c-2.3-1.1-4.4-2.7-6.1-4.6l-2.1-2.4c-0.9-1-2.6-0.9-3.3,0.2c-24.4,35.5-28.8,56.7-28.8,65.6
	c0,2.4,2,4.4,4.4,4.5c4.3,0.2,6.7,1,7.7,1.5c0.5,0.2,1,0.3,1.5,0.2l0.1,0c1.3-0.3,2.1-1.6,1.8-3c-0.1-0.4-0.2-0.7-0.3-1.2
	c0-0.1,0-0.2,0-0.3c-0.5-5.5,1.9-12.9,5.5-20.6L656,97z"/>
<path class="st0" d="M733.8,97.4l-0.6-3.2c-0.7-3.6-3-6.5-6.1-7.8l-22.7-9.2c-0.3-0.1-0.3-0.7,0-0.8l17.6-7.1l4.5,0.8L724,52.2
	c-0.2-1.1-1.1-1.9-2.1-1.7l-1.3,0.2c-0.2,0-0.3,0.1-0.5,0.1l-34.7,14.9c-5,2.1-7.8,8.1-6.4,13.8l0.5,2.3c0.8,3.3,3,6,5.9,7.2
	l22.2,9.3c0.5,0.2,0.5,1.1-0.1,1.3l-48.2,15.1c-0.5,0.1-0.9,0.1-1.3-0.1c-1-0.5-2.2,0-2.6,1.1l-6.1,15.9c-0.7,1.8,0.7,3.6,2.4,3.1
	l74.8-23.7C731.6,109.2,734.9,103.2,733.8,97.4z"/>
<rect class="st1" width="742.9" height="172.7"/>
</svg>